<?xml version="1.0" encoding="UTF-8" standalone="no"?>
<svg
   viewBox="0 0 25.000002 20"
   version="1.1"
   id="svg6"
   sodipodi:docname="icon.svg"
   width="25.000002"
   height="20"
   inkscape:version="1.1.2 (0a00cf5339, 2022-02-04)"
   xmlns:inkscape="http://www.inkscape.org/namespaces/inkscape"
   xmlns:sodipodi="http://sodipodi.sourceforge.net/DTD/sodipodi-0.dtd"
   xmlns="http://www.w3.org/2000/svg"
   xmlns:svg="http://www.w3.org/2000/svg">
  <defs
     id="defs10" />
  <sodipodi:namedview
     id="namedview8"
     pagecolor="#ffffff"
     bordercolor="#666666"
     borderopacity="1.0"
     inkscape:pageshadow="2"
     inkscape:pageopacity="0.0"
     inkscape:pagecheckerboard="0"
     showgrid="false"
     fit-margin-top="0"
     fit-margin-left="0"
     fit-margin-right="0"
     fit-margin-bottom="0"
     inkscape:zoom="25.678571"
     inkscape:cx="14.52573"
     inkscape:cy="12.481224"
     inkscape:window-width="1920"
     inkscape:window-height="1028"
     inkscape:window-x="0"
     inkscape:window-y="0"
     inkscape:window-maximized="1"
     inkscape:current-layer="svg6" />
  <path
     fill="#00afdb"
     stroke="#fff"
     stroke-linecap="round"
     stroke-linejoin="round"
     stroke-width="3"
     d="M 0.8709678,0 0,0.72 V 19.28 L 0.8709678,20 H 7.3306456 L 6.4354843,16.896 H 14.53226 L 13.637098,20 h 6.459678 l 0.870968,-0.72 v -5.888 l 4.032258,0.776 V 5.832 L 20.967744,6.608 V 0.72 L 20.096776,0 H 13.637098 L 14.53226,3.104 H 6.4354843 L 7.3306456,0 Z"
     paint-order="stroke fill markers"
     id="path2"
     style="stroke:none" />
  <path
     fill="#ffffff"
     stroke="#ffffff"
     stroke-width="0.303817"
     d="m 8.091641,7.9962737 c 0.0058,0.016813 -0.0029,0.034206 -0.02617,0.051019 L 5.361077,9.4346505 c -0.08142,0.045801 -0.121552,0.1031967 -0.121552,0.1721878 0,0.063194 0.04362,0.1147918 0.129694,0.1547951 h -0.0087 l 2.670663,1.3351796 c 0.02908,0.01739 0.04304,0.03189 0.04304,0.04348 L 7.49554,12.182696 c -0.0058,0.02319 -0.02908,0.02899 -0.06979,0.01739 L 3.485472,10.114705 c -0.02908,-0.0116 -0.04304,-0.03131 -0.04304,-0.06029 V 9.1325972 c 0,-0.02319 0.01396,-0.040003 0.04304,-0.051598 l 3.931551,-2.07553 c 0.01163,-0.011595 0.02617,-0.0087 0.04362,0.00812 z m 1.790136,4.5951533 a 0.1500503,0.14957727 0 0 1 -0.147143,0.0945 H 8.684282 c -0.0349,0 -0.06049,-0.01449 -0.07735,-0.0429 -0.01163,-0.02899 -0.01163,-0.06029 0,-0.09508 l 2.808499,-5.8491672 c 0.02908,-0.063194 0.08026,-0.0945 0.155285,-0.0945 h 1.024762 c 0.04594,0 0.07735,0.014494 0.0948,0.042902 0.01745,0.02319 0.01454,0.054497 -0.0087,0.09508 z m 3.399976,-4.5951533 c -0.0058,0.016813 0.0029,0.034206 0.02618,0.051019 l 2.704395,1.3873582 c 0.08142,0.045801 0.121552,0.1031967 0.121552,0.1721878 0,0.063194 -0.04362,0.1147918 -0.129694,0.1547951 h 0.0087 l -2.670663,1.3351792 c -0.02908,0.01739 -0.04304,0.03189 -0.04304,0.04348 l 0.579263,1.042403 c 0.0058,0.02319 0.02908,0.02899 0.06862,0.01739 L 17.887945,10.1147 c 0.02908,-0.0116 0.04304,-0.03131 0.04304,-0.06029 V 9.1325972 c 0,-0.02319 -0.01396,-0.040003 -0.04304,-0.051598 l -3.931547,-2.07553 c -0.01163,-0.011595 -0.02617,-0.0087 -0.04362,0.00812 z"
     aria-label="&lt;/&gt;"
     font-family="'K.O. Activista*'"
     font-size="148.59px"
     letter-spacing="0"
     style="line-height:1.25;-inkscape-font-specification:'K.O. Activista*, Normal'"
     word-spacing="0"
     id="path4" />
</svg>
