<svg xmlns="http://www.w3.org/2000/svg" viewBox="0 0 25 20"><path fill="#00afdb" d="M.87 0 0 .72v18.56l.87.72h6.46l-.9-3.1h8.1l-.9 3.1h6.47l.87-.72v-5.89l4.03.78V5.83l-4.03.78V.72L20.1 0h-6.46l.9 3.1h-8.1l.9-3.1Z" paint-order="stroke fill markers"/><path fill="#fff" stroke="#fff" stroke-width=".3" d="m8.1 8-.03.05-2.7 1.38c-.09.05-.13.1-.13.18 0 .06.04.11.13.15l2.66 1.34c.03.01.04.03.04.04l-.57 1.04c-.01.03-.03.03-.07.02l-3.94-2.09c-.03 0-.05-.03-.05-.06v-.92c0-.02.02-.04.05-.05l3.93-2.07c0-.02.02-.01.04 0zm1.78 4.6a.15.15 0 0 1-.15.09H8.68a.08.08 0 0 1-.07-.05.13.13 0 0 1 0-.1l2.8-5.84c.03-.06.09-.1.16-.1h1.03a.1.1 0 0 1 .09.05c.02.02.01.05 0 .1zm3.4-4.6c0 .01 0 .03.03.05L16 9.43c.08.05.12.1.12.18 0 .06-.04.11-.13.15H16l-2.67 1.34c-.03.01-.04.03-.04.04l.58 1.04c0 .03.03.03.07.02l3.94-2.09c.03 0 .04-.03.04-.06v-.92c0-.02-.01-.04-.04-.05l-3.93-2.07c-.02-.02-.03-.01-.05 0z" aria-label="&lt;/&gt;" font-family="'K.O. Activista*'" font-size="148.59" letter-spacing="0" style="line-height:1.25;-inkscape-font-specification:&quot;K.O. Activista*, Normal&quot;" word-spacing="0"/></svg>